<?xml version="1.0" encoding="UTF-8"?>
<svg width="512" height="512" viewBox="0 0 512 512" fill="none" xmlns="http://www.w3.org/2000/svg">
  <!-- Background circle with rounded corners -->
  <rect width="512" height="512" rx="128" fill="#3B82F6"/>
  
  <!-- Wolf logo centered in the circle -->
  <g transform="translate(106, 106) scale(1.2)">
    <path d="M250 50C250 50 220 70 200 80C180 90 160 120 150 140C140 160 130 190 130 210C130 230 140 260 150 280C160 300 180 330 200 340C220 350 250 370 250 370C250 370 280 350 300 340C320 330 340 300 350 280C360 260 370 230 370 210C370 190 360 160 350 140C340 120 320 90 300 80C280 70 250 50 250 50ZM250 100C250 100 270 110 280 120C290 130 300 150 300 170C300 190 290 210 280 220C270 230 250 240 250 240C250 240 230 230 220 220C210 210 200 190 200 170C200 150 210 130 220 120C230 110 250 100 250 100Z" 
          fill="white"/>
  </g>
</svg> 